<?xml version="1.0" encoding="utf-8"?>
<!-- Generator: Adobe Illustrator 18.0.0, SVG Export Plug-In . SVG Version: 6.00 Build 0)  -->
<!DOCTYPE svg PUBLIC "-//W3C//DTD SVG 1.1//EN" "http://www.w3.org/Graphics/SVG/1.1/DTD/svg11.dtd">
<svg version="1.1" id="Capa_1" xmlns="http://www.w3.org/2000/svg" xmlns:xlink="http://www.w3.org/1999/xlink" x="0px" y="0px"
	 viewBox="0 0 167.1 167.2" enable-background="new 0 0 167.1 167.2" xml:space="preserve">
<g>
	<path d="M0,0c55.8,0,111.4,0,167.1,0c0,55.7,0,111.4,0,167.2c-55.6,0-111.4,0-167.1,0C0,111.6,0,55.8,0,0z M69.6,134.5
		c7.2,0,14,0,21.3,0c0-17.1,0-34,0-51.3c4.4,0,8.2,0.1,12.1-0.1c0.9,0,2.4-1.1,2.5-1.8c0.7-5.2,1-10.4,1.5-16.2c-2.3,0-4.2,0-6.1,0
		c-10.3,0-10.3,0-10-10.2c0.1-4.2,1.4-5.6,5.6-5.6c3.3-0.1,6.6,0,9.9,0c0-6.2,0-11.8,0-17.5c-6.4,0-12.5-0.4-18.6,0.1
		c-10.3,0.9-17,8-17.9,18.4c-0.3,3.7-0.4,7.5-0.2,11.2c0.2,3.1-1,4-3.9,3.7c-1.9-0.2-3.9,0-6.1,0c0,6.2,0,12,0,18.1
		c2,0,3.8,0.2,5.5,0c3.3-0.4,4.5,0.6,4.5,4.3c-0.2,13.6-0.1,27.2-0.1,40.9C69.6,130.3,69.6,132.3,69.6,134.5z"/>
	<path fill="#FFFFFF" d="M69.6,134.5c0-2.2,0-4.2,0-6.2c0-13.6-0.1-27.3,0.1-40.9c0.1-3.6-1.2-4.6-4.5-4.3c-1.7,0.2-3.5,0-5.5,0
		c0-6.1,0-11.9,0-18.1c2.2,0,4.1-0.2,6.1,0c2.9,0.3,4.1-0.6,3.9-3.7c-0.2-3.7-0.1-7.5,0.2-11.2c0.9-10.4,7.6-17.5,17.9-18.4
		c6.1-0.5,12.2-0.1,18.6-0.1c0,5.7,0,11.3,0,17.5c-3.3,0-6.6-0.1-9.9,0c-4.2,0.1-5.5,1.4-5.6,5.6c-0.3,10.2-0.3,10.2,10,10.2
		c1.9,0,3.9,0,6.1,0c-0.5,5.8-0.9,11.1-1.5,16.2c-0.1,0.7-1.6,1.7-2.5,1.8c-3.8,0.2-7.7,0.1-12.1,0.1c0,17.3,0,34.2,0,51.3
		C83.6,134.5,76.8,134.5,69.6,134.5z"/>
</g>
</svg>
