<?xml version="1.0" encoding="utf-8"?>
<!-- Generator: Adobe Illustrator 18.0.0, SVG Export Plug-In . SVG Version: 6.00 Build 0)  -->
<!DOCTYPE svg PUBLIC "-//W3C//DTD SVG 1.1//EN" "http://www.w3.org/Graphics/SVG/1.1/DTD/svg11.dtd">
<svg version="1.1" id="Capa_1" xmlns="http://www.w3.org/2000/svg" xmlns:xlink="http://www.w3.org/1999/xlink" x="0px" y="0px"
	 viewBox="0 0 263 265" enable-background="new 0 0 263 265" xml:space="preserve">
<g>
	<path fill="#FFFFFF" d="M263,265c-85.7,0-171.3,0-257,0C6,179.3,6,93.7,6,8c85.7,0,171.3,0,257,0C263,93.7,263,179.3,263,265z
		 M32.8,107.1c0,2,0,3.5,0,5c0,28.7,0,57.3,0,86c0,23.8,17.5,41.1,41.4,41.1c40.5,0,81,0,121.4,0c24.8,0,42.1-17.3,42.1-42.1
		c0-28.2,0-56.3,0-84.5c0-1.8,0-3.5,0-5.4c-20.1,0-39.6,0-59.3,0c17.4,29.1,6.4,55.6-8.2,68.7c-17.5,15.7-43.2,18.1-63,5.6
		c-12.6-8-20.5-19.3-23.5-33.9c-3-14.5,0.2-27.9,8.3-40.8c-19.4,0-37.9,0-56.4,0C35,106.8,34.2,107,32.8,107.1z M237.8,100.5
		c0-9.3,0-17.6,0-25.9C237.8,51,220,33.2,196.4,33.2c-34.8,0-69.6,0-104.5,0c-1.7,0-3.5,0.2-5.7,0.3c0,17.1,0,33.7,0,50.4
		c-2.9,0-5.3,0-8.2,0c0-16.9,0-33.5,0-50.4c-2,0-3.6,0-5.8,0c0,17,0,33.7,0,50.3c-3.1,0-5.5,0-8.2,0c0-16.5,0-32.7,0-48.9
		c-4.3-0.2-6.2,1.2-6.1,5.7c0.3,8.5,0.1,17,0.1,25.5c0,5.9,0,11.9,0,17.7c-3.1,0-5.4,0-8.4,0c0-14.4,0-28.4,0-43
		c-8.4,6.3-14.3,13.8-15.5,23.4C32.7,76,32.9,88,32.4,99.9c1.6,0.3,2.2,0.6,2.8,0.6c20,0,40,0.1,60-0.1c1.9,0,4-1.4,5.5-2.7
		c19.9-17.1,48.7-17.1,68.8-0.2c2,1.7,5.3,2.8,7.9,2.9c17.7,0.2,35.3,0.1,53,0.1C232.7,100.5,235,100.5,237.8,100.5z M94.7,137.1
		c-0.1,22.3,17.8,40.5,40.1,40.6c22.3,0.2,40.9-18.3,40.8-40.6c-0.1-22.3-18.2-40.2-40.5-40.2C112.7,96.8,94.8,114.6,94.7,137.1z"/>
	<path d="M32.8,107.1c1.4-0.1,2.2-0.3,3-0.3c18.5,0,37,0,56.4,0c-8.1,12.9-11.3,26.3-8.3,40.8c3,14.6,10.9,25.9,23.5,33.9
		c19.8,12.5,45.5,10.1,63-5.6c14.6-13.1,25.6-39.6,8.2-68.7c19.7,0,39.2,0,59.3,0c0,1.8,0,3.6,0,5.4c0,28.2,0,56.3,0,84.5
		c0,24.8-17.4,42.1-42.1,42.1c-40.5,0-81,0-121.4,0c-24,0-41.4-17.3-41.4-41.1c-0.1-28.7,0-57.3,0-86
		C32.8,110.6,32.8,109.1,32.8,107.1z"/>
	<path d="M237.8,100.5c-2.9,0-5.2,0-7.5,0c-17.7,0-35.3,0.1-53-0.1c-2.7,0-5.9-1.1-7.9-2.9c-20.1-17-48.8-17-68.8,0.2
		c-1.5,1.3-3.7,2.7-5.5,2.7c-20,0.2-40,0.1-60,0.1c-0.6,0-1.3-0.3-2.8-0.6C32.9,88,32.7,76,34.1,64.2c1.2-9.5,7.1-17,15.5-23.4
		c0,14.6,0,28.6,0,43c2.9,0,5.3,0,8.4,0c0-5.8,0-11.8,0-17.7c0-8.5,0.3-17-0.1-25.5c-0.2-4.5,1.7-5.9,6.1-5.7c0,16.2,0,32.4,0,48.9
		c2.7,0,5.1,0,8.2,0c0-16.6,0-33.3,0-50.3c2.2,0,3.8,0,5.8,0c0,16.8,0,33.4,0,50.4c2.8,0,5.2,0,8.2,0c0-16.7,0-33.2,0-50.4
		c2.3-0.1,4-0.3,5.7-0.3c34.8,0,69.6,0,104.5,0c23.6,0,41.4,17.8,41.4,41.4C237.9,82.9,237.8,91.2,237.8,100.5z M219.1,68
		c0-3.7,0.1-7.3,0-11c-0.1-4.2-2.5-6.6-6.5-6.8c-7.1-0.3-14.3-0.2-21.4,0c-4.3,0.1-6.7,2.7-6.8,7c-0.1,7.1-0.1,14.3,0,21.4
		c0.1,4.3,2.6,6.7,7,6.8c7,0,14,0.1,20.9,0c4.3-0.1,6.7-2.5,6.8-7C219.1,75,219.1,71.5,219.1,68z"/>
	<path d="M94.7,137.1c0.1-22.4,18-40.2,40.4-40.2c22.3,0,40.4,18,40.5,40.2c0.1,22.3-18.5,40.8-40.8,40.6
		C112.5,177.5,94.6,159.4,94.7,137.1z M165,137.3c0-16.4-13.4-30-29.8-29.9c-16.4,0-29.8,13.6-29.7,30c0.1,16.3,13.3,29.6,29.5,29.6
		C151.5,167.1,165,153.7,165,137.3z"/>
	<path fill="#FFFFFF" d="M219.1,68c0,3.5,0,7,0,10.5c0,4.4-2.4,6.9-6.8,7c-7,0.2-14,0.1-20.9,0c-4.4,0-6.9-2.4-7-6.8
		c-0.2-7.1-0.1-14.3,0-21.4c0.1-4.4,2.5-6.9,6.8-7c7.1-0.2,14.3-0.2,21.4,0c4,0.1,6.4,2.6,6.5,6.8C219.1,60.7,219.1,64.4,219.1,68z"
		/>
	<path fill="#FFFFFF" d="M165,137.3c0,16.5-13.5,29.8-30,29.7c-16.2-0.1-29.4-13.4-29.5-29.6c-0.1-16.5,13.3-30,29.7-30
		C151.6,107.3,165,120.8,165,137.3z"/>
</g>
</svg>
